# WaveFront *.obj file (generated by Autodesk ATF)

mtllib Part1.mtl

g Solid1

v -5.000000 0.000000 -5.000000
v -5.000000 0.000000 5.000000
v 0.000000 -28.356408 0.000000
v 0.000000 28.356408 0.000000
v 5.000000 0.000000 -5.000000
v 5.000000 0.000000 5.000000
vt 0.000000 0.000000 0.000000
vt -12.700000 73.136383 0.000000
vt -25.400000 0.000000 0.000000
vt 0.000000 0.000000 0.000000
vt -12.700000 73.136383 0.000000
vt -25.400000 0.000000 0.000000
vt 0.000000 0.000000 0.000000
vt -12.700000 73.136383 0.000000
vt -25.400000 0.000000 0.000000
vt 0.000000 0.000000 0.000000
vt -12.700000 73.136383 0.000000
vt -25.400000 0.000000 0.000000
vt 0.000000 0.000000 0.000000
vt -12.700000 73.136383 0.000000
vt -25.400000 0.000000 0.000000
vt 0.000000 0.000000 0.000000
vt -12.700000 73.136383 0.000000
vt -25.400000 0.000000 0.000000
vt 0.000000 0.000000 0.000000
vt -12.700000 73.136383 0.000000
vt -25.400000 0.000000 0.000000
vt 0.000000 0.000000 0.000000
vt -12.700000 73.136383 0.000000
vt -25.400000 0.000000 0.000000
vn 2.501412 -0.441066 0.000000
vn 2.501412 -0.441066 0.000000
vn 2.501412 -0.441066 0.000000
vn 0.000000 -0.441066 -2.501412
vn 0.000000 -0.441066 -2.501412
vn 0.000000 -0.441066 -2.501412
vn -2.501412 -0.441066 0.000000
vn -2.501412 -0.441066 0.000000
vn -2.501412 -0.441066 0.000000
vn 0.000000 -0.441066 2.501412
vn 0.000000 -0.441066 2.501412
vn 0.000000 -0.441066 2.501412
vn -2.501412 0.441066 0.000000
vn -2.501412 0.441066 0.000000
vn -2.501412 0.441066 0.000000
vn 0.000000 0.441066 -2.501412
vn 0.000000 0.441066 -2.501412
vn 0.000000 0.441066 -2.501412
vn 2.501412 0.441066 0.000000
vn 2.501412 0.441066 0.000000
vn 2.501412 0.441066 0.000000
vn 0.000000 0.441066 2.501412
vn 0.000000 0.441066 2.501412
vn 0.000000 0.441066 2.501412
usemtl 191,191,191
f 6/1/1 3/2/2 5/3/3
f 5/4/4 3/5/5 1/6/6
f 1/7/7 3/8/8 2/9/9
f 2/10/10 3/11/11 6/12/12
f 2/13/13 4/14/14 1/15/15
f 1/16/16 4/17/17 5/18/18
f 5/19/19 4/20/20 6/21/21
f 6/22/22 4/23/23 2/24/24

# 6 vertices
# 24 texture params
# 24 normals
# 8 facets

# 1 groups
